<svg width="192" height="31" viewBox="0 0 192 31" fill="none" xmlns="http://www.w3.org/2000/svg">
<path d="M21.3645 5.81851L12.137 30.238H10.2042L3.0966 3.71947L0 2.59721V1.78669H11.3265V2.59721L7.77268 3.6779L13.3008 24.9177L12.2617 25.0008L20.8657 1.45417H22.8816L32.2337 25.4788L30.6543 26.0192L35.8499 3.69869L32.3169 2.59721V1.78669H41.004V2.59721L37.9697 3.69869L31.3193 30.238H29.3865L19.9513 6.4212L21.3645 5.81851Z" fill="#202020"/>
<path d="M49.3881 28.7209C50.3718 28.7209 51.2308 28.4646 51.9652 27.9519C52.6995 27.4254 53.2745 26.6218 53.6901 25.5412C54.1058 24.4466 54.3136 23.0403 54.3136 21.3223C54.3136 19.4519 54.1058 17.8862 53.6901 16.6254C53.2883 15.3646 52.7133 14.4156 51.9652 13.7782C51.217 13.127 50.3095 12.8014 49.2426 12.8014C48.2728 12.8014 47.4207 13.0578 46.6864 13.5704C45.9521 14.083 45.3771 14.8866 44.9614 15.9812C44.5458 17.0619 44.338 18.4612 44.338 20.1793C44.338 22.0358 44.5389 23.6014 44.9407 24.8761C45.3425 26.1369 45.9244 27.0929 46.6864 27.7441C47.4484 28.3953 48.349 28.7209 49.3881 28.7209ZM49.2219 30.3627C47.393 30.3627 45.7789 29.9678 44.3795 29.1781C42.9802 28.3745 41.8856 27.2661 41.0959 25.8529C40.32 24.4258 39.9321 22.7909 39.9321 20.9482C39.9321 19.0501 40.3408 17.3667 41.1582 15.898C41.9895 14.4156 43.1187 13.2517 44.5458 12.4066C45.9729 11.5614 47.5939 11.1388 49.4089 11.1388C51.2655 11.1388 52.8865 11.5406 54.272 12.3442C55.6714 13.134 56.759 14.2354 57.5349 15.6487C58.3246 17.0619 58.7195 18.6968 58.7195 20.5533C58.7195 22.4515 58.3038 24.1418 57.4725 25.6243C56.6412 27.1068 55.5121 28.2706 54.085 29.1158C52.6579 29.9471 51.0369 30.3627 49.2219 30.3627Z" fill="#202020"/>
<path d="M73.7456 11.2843C74.4938 11.2843 75.0341 11.4783 75.3666 11.8662C75.713 12.2542 75.8862 12.7391 75.8862 13.321C75.8862 14.0692 75.6507 14.658 75.1796 15.0875C74.7085 15.517 74.1128 15.7318 73.3923 15.7318C73.0044 15.7318 72.6441 15.6764 72.3116 15.5655C71.9929 15.4408 71.6604 15.33 71.314 15.233C70.9815 15.1222 70.6074 15.0667 70.1918 15.0667C69.8593 15.0667 69.5129 15.1152 69.1527 15.2122C68.7924 15.2954 68.4391 15.427 68.0928 15.6071C67.7464 15.7734 67.4277 15.9742 67.1367 16.2098L66.7419 15.3577C67.5732 14.6234 68.3283 13.9999 69.0072 13.4873C69.6999 12.9746 70.3234 12.559 70.8776 12.2403C71.4457 11.9078 71.9652 11.6653 72.4363 11.5129C72.9074 11.3605 73.3438 11.2843 73.7456 11.2843ZM67.6979 15.0667V28.139L70.8153 29.1365V29.9055H60.7357V29.1365L63.6661 28.1805V15.5655C63.4721 15.3438 63.2366 15.1499 62.9595 14.9836C62.6962 14.8035 62.3775 14.6234 62.0035 14.4433C61.6294 14.2632 61.1999 14.0761 60.7149 13.8821V13.3002L66.9705 11.1181H67.4277L67.6979 15.0667Z" fill="#202020"/>
<path d="M83.0831 28.1805L86.0758 29.1365V29.9055H76.1418V29.1365L79.0721 28.1805V4.67546C78.8781 4.46764 78.6357 4.25289 78.3447 4.03121C78.0538 3.80953 77.7005 3.58092 77.2848 3.34538C76.8692 3.10985 76.3912 2.87431 75.8508 2.63878V2.07764L82.8545 0.165649H83.3118L83.0831 3.86495V28.1805Z" fill="#202020"/>
<path d="M101.852 16.8956C101.852 15.7318 101.471 14.7758 100.709 14.0276C99.947 13.2656 98.8663 12.8846 97.4669 12.8846C96.3308 12.8846 95.361 13.1825 94.5574 13.7782C93.7677 14.3601 93.165 15.2192 92.7493 16.3553C92.3337 17.4775 92.1258 18.8492 92.1258 20.4702C92.1258 22.0635 92.3475 23.4006 92.7909 24.4812C93.2481 25.5619 93.8854 26.3725 94.7029 26.9128C95.5203 27.4531 96.4832 27.7233 97.5916 27.7233C98.5476 27.7233 99.469 27.5709 100.356 27.2661C101.242 26.9613 102.101 26.4764 102.933 25.8113L102.974 27.2453C102.046 27.8688 101.242 28.3884 100.564 28.804C99.8847 29.2197 99.275 29.5383 98.7347 29.76C98.2082 29.9817 97.7094 30.1341 97.2383 30.2172C96.7673 30.3142 96.2893 30.3627 95.8043 30.3627C94.0586 30.3627 92.583 29.9956 91.3777 29.2612C90.1723 28.5269 89.2578 27.5086 88.6344 26.2062C88.0247 24.89 87.7199 23.3798 87.7199 21.6756C87.7199 20.013 87.9901 18.5305 88.5304 17.2281C89.0708 15.9258 89.812 14.8243 90.7542 13.9237C91.7102 13.0093 92.7978 12.3165 94.017 11.8454C95.2501 11.3744 96.5525 11.1388 97.9242 11.1388C98.6308 11.1388 99.3166 11.1943 99.9816 11.3051C100.661 11.4159 101.353 11.5891 102.06 11.8247C102.78 12.0602 103.529 12.3719 104.304 12.7599L101.852 13.6327V4.2806C101.672 4.07277 101.436 3.87187 101.145 3.6779C100.868 3.48393 100.543 3.28996 100.169 3.09599C99.8084 2.88817 99.4205 2.6942 99.0049 2.51408V1.99452L105.676 0.165649H106.112L105.863 3.84416V26.9128C106.002 27.0514 106.175 27.1899 106.383 27.3285C106.604 27.467 106.84 27.6056 107.089 27.7441C107.353 27.8688 107.609 27.9796 107.858 28.0766C108.121 28.1736 108.371 28.2498 108.606 28.3052V28.9495L102.642 30.3211H102.185L101.852 27.1206V16.8956Z" fill="#202020"/>
<path d="M137.537 9.76719C137.537 8.49253 137.267 7.41184 136.727 6.52511C136.2 5.63839 135.334 4.96642 134.129 4.50921C132.937 4.03813 131.323 3.8026 129.286 3.8026H123.322L123.53 1.78669H131.552C134.073 1.78669 136.103 2.13307 137.641 2.82582C139.193 3.50471 140.322 4.433 141.028 5.61068C141.749 6.78836 142.109 8.10459 142.109 9.55937C142.109 11.0419 141.742 12.4066 141.008 13.6535C140.273 14.9005 139.13 15.898 137.579 16.6462C136.027 17.3944 134.018 17.7685 131.552 17.7685H123.53L123.322 15.7526H131.281C132.487 15.7526 133.554 15.524 134.482 15.0667C135.424 14.6095 136.165 13.9376 136.706 13.0508C137.26 12.1641 137.537 11.0696 137.537 9.76719ZM126.73 1.78669V28.0143L129.993 29.095V29.9055H118.999V29.095L122.262 28.0143V3.6779L118.999 2.59721V1.78669H126.73Z" fill="#202020"/>
<path d="M151.117 11.1388C152.558 11.1388 153.798 11.4506 154.837 12.0741C155.876 12.6975 156.701 13.605 157.31 14.7966C157.92 15.9742 158.301 17.4082 158.453 19.0986H145.443L145.485 17.623L156.188 17.1658L154.318 18.1218C154.221 16.9995 154.034 16.0435 153.757 15.2538C153.479 14.4502 153.091 13.8406 152.593 13.4249C152.094 13.0093 151.464 12.8014 150.701 12.8014C149.829 12.8014 149.053 13.0508 148.374 13.5496C147.709 14.0484 147.189 14.8104 146.815 15.8357C146.441 16.8471 146.254 18.1287 146.254 19.6805C146.254 21.3015 146.545 22.687 147.127 23.837C147.709 24.9731 148.519 25.839 149.558 26.4348C150.611 27.0306 151.851 27.3285 153.279 27.3285C153.86 27.3285 154.415 27.2592 154.941 27.1206C155.481 26.9821 156.008 26.7743 156.521 26.4972C157.047 26.2062 157.553 25.846 158.038 25.4165L158.599 26.0607C157.865 27.0167 157.102 27.8134 156.313 28.4507C155.537 29.088 154.713 29.566 153.84 29.8847C152.981 30.2034 152.045 30.3627 151.034 30.3627C149.33 30.3627 147.82 29.9678 146.503 29.1781C145.187 28.3745 144.155 27.273 143.407 25.8737C142.672 24.4743 142.305 22.8602 142.305 21.0313C142.305 19.2302 142.652 17.5814 143.344 16.0851C144.037 14.5887 145.042 13.3903 146.358 12.4897C147.674 11.5891 149.261 11.1388 151.117 11.1388Z" fill="#202020"/>
<path d="M172.068 18.2673L172.318 19.7428C170.794 20.1169 169.554 20.491 168.598 20.8651C167.642 21.2392 166.893 21.6271 166.353 22.0289C165.827 22.4307 165.459 22.8533 165.252 23.2966C165.058 23.74 164.961 24.2319 164.961 24.7722C164.961 25.7282 165.224 26.4487 165.75 26.9336C166.277 27.4185 166.921 27.661 167.683 27.661C168.293 27.661 168.84 27.5155 169.325 27.2245C169.81 26.9197 170.198 26.5179 170.489 26.0192C170.78 25.5065 170.925 24.9454 170.925 24.3358V16.4176C170.925 15.4339 170.662 14.6511 170.135 14.0692C169.623 13.4873 168.792 13.1963 167.642 13.1963C167.198 13.1963 166.713 13.2517 166.187 13.3626C165.66 13.4734 165.168 13.6397 164.711 13.8614L165.688 12.7807C165.619 13.321 165.542 13.8129 165.459 14.2562C165.376 14.6996 165.279 15.0806 165.168 15.3993C165.058 15.7179 164.926 15.9673 164.774 16.1474C164.552 16.383 164.261 16.57 163.901 16.7086C163.54 16.8333 163.173 16.8956 162.799 16.8956C162.3 16.8956 161.912 16.7917 161.635 16.5839C161.358 16.376 161.22 16.092 161.22 15.7318C161.22 15.2469 161.455 14.7412 161.926 14.2147C162.397 13.6882 163.021 13.2032 163.797 12.7599C164.586 12.3165 165.459 11.9563 166.415 11.6792C167.385 11.4021 168.362 11.2635 169.346 11.2635C170.717 11.2635 171.812 11.4714 172.629 11.887C173.461 12.3027 174.056 12.8984 174.417 13.6743C174.777 14.4502 174.957 15.3785 174.957 16.4592V26.1854C174.957 26.5872 175.012 26.9267 175.123 27.2038C175.248 27.467 175.421 27.6679 175.643 27.8065C175.878 27.9311 176.162 27.9935 176.495 27.9935C176.814 27.9935 177.153 27.9381 177.513 27.8272C177.873 27.7025 178.234 27.5294 178.594 27.3077V28.326C177.915 29.0188 177.215 29.5314 176.495 29.8639C175.788 30.1826 175.116 30.3419 174.479 30.3419C173.703 30.3419 173.059 30.1826 172.546 29.8639C172.034 29.5314 171.646 29.0603 171.382 28.4507C171.133 27.8411 171.008 27.1206 171.008 26.2893L171.154 26.1439C170.932 27.0029 170.565 27.751 170.052 28.3884C169.554 29.0118 168.951 29.4968 168.244 29.8431C167.551 30.1895 166.796 30.3627 165.979 30.3627C164.51 30.3627 163.305 29.9609 162.363 29.1573C161.421 28.3537 160.95 27.183 160.95 25.6451C160.95 24.8553 161.102 24.1418 161.407 23.5045C161.725 22.8533 162.287 22.2437 163.09 21.6756C163.894 21.1075 165.023 20.5464 166.478 19.9922C167.932 19.438 169.796 18.863 172.068 18.2673Z" fill="#202020"/>
<path d="M186.389 11.1388C187.289 11.1388 188.086 11.222 188.779 11.3882C189.471 11.5545 190.233 11.8316 191.065 12.2195L191.418 17.2697H190.441L188.134 12.1364L189.672 13.8821C189.118 13.4526 188.585 13.134 188.072 12.9261C187.573 12.7183 187.033 12.6144 186.451 12.6144C185.384 12.6144 184.553 12.8361 183.957 13.2794C183.375 13.7228 183.084 14.3463 183.084 15.1499C183.084 15.7456 183.244 16.2514 183.562 16.667C183.881 17.0827 184.352 17.4567 184.975 17.7893C185.599 18.1218 186.368 18.4682 187.282 18.8284C187.975 19.0916 188.606 19.3964 189.174 19.7428C189.755 20.0753 190.254 20.4702 190.67 20.9274C191.086 21.3846 191.411 21.9111 191.647 22.5069C191.882 23.1027 192 23.8023 192 24.6059C192 25.839 191.688 26.8851 191.065 27.7441C190.441 28.5893 189.596 29.2404 188.529 29.6977C187.476 30.141 186.271 30.3627 184.913 30.3627C184.013 30.3627 183.195 30.2865 182.461 30.1341C181.726 29.9955 181.02 29.7808 180.341 29.4898L179.447 24.1903H180.466L183.438 29.6353L181.027 28.0766C181.526 28.3122 181.962 28.4923 182.336 28.617C182.724 28.7417 183.084 28.8317 183.417 28.8871C183.763 28.9287 184.11 28.9495 184.456 28.9495C185.717 28.9495 186.735 28.6932 187.511 28.1805C188.287 27.654 188.675 26.8643 188.675 25.8113C188.675 25.2987 188.557 24.8553 188.321 24.4812C188.086 24.1072 187.76 23.7816 187.345 23.5045C186.929 23.2135 186.437 22.9433 185.869 22.6939C185.315 22.4446 184.712 22.1813 184.061 21.9042C183.202 21.544 182.461 21.1214 181.837 20.6365C181.228 20.1515 180.757 19.5696 180.424 18.8907C180.105 18.198 179.946 17.3736 179.946 16.4176C179.946 15.2954 180.23 14.3463 180.798 13.5704C181.38 12.7807 182.156 12.178 183.126 11.7623C184.11 11.3467 185.197 11.1388 186.389 11.1388Z" fill="#202020"/>
</svg>
